<svg width="295" height="165" viewBox="0 0 295 165" fill="none" xmlns="http://www.w3.org/2000/svg">
<path d="M4.05988 121.966C3.72654 121.632 3.55988 120.924 3.55988 119.841C3.55988 118.174 3.72654 117.341 4.05988 117.341C4.72654 117.341 5.68488 117.216 6.93488 116.966C8.18488 116.716 9.35154 116.382 10.4349 115.966C11.5182 115.466 12.1432 115.007 12.3099 114.591C12.8099 112.674 13.0599 109.007 13.0599 103.591V56.3406C13.0599 51.6739 12.8099 48.4239 12.3099 46.5906C12.1432 46.0906 11.4765 45.5906 10.3099 45.0906C9.22654 44.5072 8.05988 44.0489 6.80988 43.7156C5.55988 43.2989 4.60154 43.0906 3.93488 43.0906C3.60154 43.0906 3.43488 42.3406 3.43488 40.8406C3.43488 39.5072 3.55988 38.7156 3.80988 38.4656C7.14321 38.6322 10.3099 38.7989 13.3099 38.9656C16.3932 39.0489 19.3515 39.0906 22.1849 39.0906L41.0599 38.8406C44.1432 38.8406 47.2682 39.2572 50.4349 40.0906C53.6015 40.8406 56.6849 42.0489 59.6849 43.7156C62.6015 45.3822 64.9765 47.7156 66.8099 50.7156C68.6432 53.7156 69.5599 57.1739 69.5599 61.0906C69.5599 63.9239 68.9349 66.4656 67.6849 68.7156C66.5182 70.9656 65.1432 72.8406 63.5599 74.3406C61.9765 75.7572 60.5182 76.7156 59.1849 77.2156C58.5182 77.4656 58.3099 77.7156 58.5599 77.9656C60.5599 78.2989 62.6015 79.3406 64.6849 81.0906C66.8515 82.8406 68.6849 85.1739 70.1849 88.0906C71.6849 90.9239 72.4349 94.2572 72.4349 98.0906C72.4349 102.841 71.1015 107.007 68.4349 110.591C65.7682 114.174 62.0599 116.924 57.3099 118.841C52.5599 120.674 47.0182 121.549 40.6849 121.466L22.3099 121.216C19.8099 121.216 17.0182 121.299 13.9349 121.466C10.9349 121.549 8.51821 121.632 6.68488 121.716L4.05988 121.966ZM37.0599 75.0906C40.3099 75.0906 42.6849 74.7156 44.1849 73.9656C45.5182 73.2989 46.4765 72.6739 47.0599 72.0906C47.7265 71.5072 48.4349 70.2989 49.1849 68.4656C50.0182 66.5489 50.4349 64.1322 50.4349 61.2156C50.4349 50.8822 46.6015 45.7156 38.9349 45.7156C35.1015 45.7156 32.6849 45.8822 31.6849 46.2156C30.9349 46.2989 30.5599 46.7989 30.5599 47.7156V73.3406C30.5599 74.5072 32.7265 75.0906 37.0599 75.0906ZM40.8099 114.591C49.3932 114.591 53.6849 109.549 53.6849 99.4656C53.6849 87.8822 48.5599 82.0906 38.3099 82.0906C35.7265 82.0906 33.6015 82.2989 31.9349 82.7156C31.0182 83.1322 30.5599 83.5072 30.5599 83.8406V111.966C30.5599 112.799 30.8515 113.382 31.4349 113.716C32.2682 114.299 35.3932 114.591 40.8099 114.591ZM79.6849 121.966C79.3515 121.632 79.1849 120.924 79.1849 119.841C79.1849 118.174 79.3515 117.341 79.6849 117.341C80.3515 117.341 81.3099 117.216 82.5599 116.966C83.8099 116.716 84.9765 116.382 86.0599 115.966C87.1432 115.466 87.7682 115.007 87.9349 114.591C88.4349 112.674 88.6849 109.007 88.6849 103.591V56.3406C88.6849 51.6739 88.4349 48.4239 87.9349 46.5906C87.7682 46.0906 87.1015 45.5906 85.9349 45.0906C84.8515 44.5072 83.6849 44.0489 82.4349 43.7156C81.1849 43.2989 80.2265 43.0906 79.5599 43.0906C79.2265 43.0906 79.0599 42.3406 79.0599 40.8406C79.0599 39.5072 79.1849 38.7156 79.4349 38.4656C82.7682 38.6322 85.9349 38.7989 88.9349 38.9656C92.0182 39.0489 94.9765 39.0906 97.8099 39.0906L116.685 38.8406C119.768 38.8406 122.893 39.2572 126.06 40.0906C129.227 40.8406 132.31 42.0489 135.31 43.7156C138.227 45.3822 140.602 47.7156 142.435 50.7156C144.268 53.7156 145.185 57.1739 145.185 61.0906C145.185 63.9239 144.56 66.4656 143.31 68.7156C142.143 70.9656 140.768 72.8406 139.185 74.3406C137.602 75.7572 136.143 76.7156 134.81 77.2156C134.143 77.4656 133.935 77.7156 134.185 77.9656C136.185 78.2989 138.227 79.3406 140.31 81.0906C142.477 82.8406 144.31 85.1739 145.81 88.0906C147.31 90.9239 148.06 94.2572 148.06 98.0906C148.06 102.841 146.727 107.007 144.06 110.591C141.393 114.174 137.685 116.924 132.935 118.841C128.185 120.674 122.643 121.549 116.31 121.466L97.9349 121.216C95.4349 121.216 92.6432 121.299 89.5599 121.466C86.5599 121.549 84.1432 121.632 82.3099 121.716L79.6849 121.966ZM112.685 75.0906C115.935 75.0906 118.31 74.7156 119.81 73.9656C121.143 73.2989 122.102 72.6739 122.685 72.0906C123.352 71.5072 124.06 70.2989 124.81 68.4656C125.643 66.5489 126.06 64.1322 126.06 61.2156C126.06 50.8822 122.227 45.7156 114.56 45.7156C110.727 45.7156 108.31 45.8822 107.31 46.2156C106.56 46.2989 106.185 46.7989 106.185 47.7156V73.3406C106.185 74.5072 108.352 75.0906 112.685 75.0906ZM116.435 114.591C125.018 114.591 129.31 109.549 129.31 99.4656C129.31 87.8822 124.185 82.0906 113.935 82.0906C111.352 82.0906 109.227 82.2989 107.56 82.7156C106.643 83.1322 106.185 83.5072 106.185 83.8406V111.966C106.185 112.799 106.477 113.382 107.06 113.716C107.893 114.299 111.018 114.591 116.435 114.591ZM167.06 110.341C159.143 102.007 155.185 92.0489 155.185 80.4656C155.185 74.6322 156.227 69.1739 158.31 64.0906C160.393 58.9239 163.268 54.4239 166.935 50.5906C170.685 46.6739 174.977 43.6322 179.81 41.4656C184.643 39.2156 189.81 38.0906 195.31 38.0906C200.81 38.0906 205.977 39.2156 210.81 41.4656C215.727 43.6322 220.018 46.6739 223.685 50.5906C227.352 54.4239 230.227 58.9239 232.31 64.0906C234.477 69.1739 235.56 74.6322 235.56 80.4656C235.56 92.0489 231.602 102.007 223.685 110.341C218.268 116.007 212.185 119.757 205.435 121.591C198.685 123.507 191.935 123.507 185.185 121.591C178.518 119.757 172.477 116.007 167.06 110.341ZM197.31 115.716C201.477 115.716 204.935 114.257 207.685 111.341C210.518 108.424 212.602 104.507 213.935 99.5906C215.352 94.5906 216.06 89.0072 216.06 82.8406C216.06 78.2572 215.685 73.8822 214.935 69.7156C214.268 65.5489 213.143 61.5489 211.56 57.7156C209.977 53.7989 207.643 50.7156 204.56 48.4656C201.477 46.2156 197.768 45.0906 193.435 45.0906C189.018 45.0906 185.352 46.6739 182.435 49.8406C179.518 53.0906 177.477 57.0489 176.31 61.7156C175.227 66.3822 174.685 71.7156 174.685 77.7156C174.685 86.2156 176.31 94.4239 179.56 102.341C181.227 106.341 183.56 109.591 186.56 112.091C189.643 114.507 193.227 115.716 197.31 115.716Z" fill="#003554"/>
<path d="M15.0643 155.469C13.231 155.469 11.5839 155.025 10.1229 154.137C8.66199 153.249 7.50183 152.046 6.64246 150.527C5.78308 149.009 5.35339 147.319 5.35339 145.457C5.35339 143.681 5.81173 142.077 6.72839 140.645C7.64506 139.212 8.87683 138.081 10.4237 137.25C11.9992 136.391 13.7323 135.961 15.6229 135.961C17.0839 135.961 18.4302 136.219 19.662 136.734C20.8938 137.221 21.7818 137.809 22.326 138.496C22.326 141.132 21.5526 142.449 20.0057 142.449C18.8885 142.449 18.0435 141.733 17.4706 140.301C17.2128 139.642 16.8833 139.155 16.4823 138.84C16.1099 138.496 15.58 138.324 14.8925 138.324C12.6008 138.324 11.455 140.473 11.455 144.77C11.455 149.611 13.0734 152.031 16.3104 152.031C17.2844 152.031 18.1867 151.888 19.0175 151.602C19.5904 151.43 20.0344 151.272 20.3495 151.129C20.6646 150.986 20.951 150.828 21.2089 150.656C21.4953 150.456 21.8247 150.212 22.1971 149.926C22.455 150.04 22.5839 150.312 22.5839 150.742C22.5839 151.115 22.5266 151.401 22.412 151.602C22.2401 152.06 21.7961 152.604 21.08 153.234C20.3638 153.836 19.4758 154.366 18.4159 154.824C17.3846 155.254 16.2675 155.469 15.0643 155.469ZM34.8729 155.469C33.0109 155.469 31.3065 155.039 29.7596 154.18C28.2414 153.292 27.024 152.117 26.1073 150.656C25.2193 149.167 24.7753 147.52 24.7753 145.715C24.7753 143.882 25.2193 142.234 26.1073 140.773C27.024 139.312 28.2414 138.152 29.7596 137.293C31.3065 136.405 33.0109 135.961 34.8729 135.961C36.7635 135.961 38.468 136.405 39.9862 137.293C41.5044 138.152 42.7076 139.312 43.5956 140.773C44.5122 142.234 44.9706 143.882 44.9706 145.715C44.9706 147.52 44.5266 149.167 43.6385 150.656C42.7505 152.117 41.5331 153.292 39.9862 154.18C38.468 155.039 36.7635 155.469 34.8729 155.469ZM35.3026 153.105C36.1047 153.105 36.7635 152.833 37.2792 152.289C37.7948 151.745 38.1672 151.029 38.3964 150.141C38.6542 149.224 38.7831 148.25 38.7831 147.219C38.7831 141.289 37.2792 138.324 34.2714 138.324C33.4693 138.324 32.8104 138.611 32.2948 139.184C31.8078 139.757 31.4497 140.501 31.2206 141.418C30.9914 142.335 30.8768 143.323 30.8768 144.383C30.8768 150.198 32.3521 153.105 35.3026 153.105ZM47.162 155.34C47.0474 155.225 46.9901 154.924 46.9901 154.438C46.9901 153.979 47.0474 153.75 47.162 153.75C47.3912 153.75 47.7063 153.693 48.1073 153.578C48.537 153.435 48.938 153.277 49.3104 153.105C49.7115 152.934 49.9263 152.79 49.955 152.676C50.1555 151.874 50.2557 150.785 50.2557 149.41V143.523C50.2557 141.919 49.9979 140.845 49.4823 140.301C49.2531 140.014 48.938 139.814 48.537 139.699C48.1646 139.585 47.8352 139.513 47.5487 139.484C47.2622 139.427 47.119 139.37 47.119 139.312C47.119 138.31 47.1906 137.809 47.3339 137.809C48.0787 137.809 49.1385 137.651 50.5135 137.336C51.8885 136.992 53.4497 136.634 55.1971 136.262L55.412 136.219C55.4406 136.19 55.4979 136.176 55.5839 136.176L55.6698 136.133C55.813 136.133 55.9563 136.233 56.0995 136.434C56.2714 136.605 56.343 136.749 56.3143 136.863L56.1425 138.195C56.1425 138.339 56.1568 138.424 56.1854 138.453C56.2427 138.453 56.343 138.382 56.4862 138.238C58.0617 136.749 60.0526 136.004 62.4589 136.004C64.1203 136.004 65.4667 136.706 66.4979 138.109C67.5578 139.513 68.0878 141.647 68.0878 144.512V148.766C68.0878 150.656 68.188 151.96 68.3885 152.676C68.4458 152.79 68.6607 152.934 69.0331 153.105C69.4055 153.277 69.7922 153.435 70.1932 153.578C70.6229 153.693 70.9237 153.75 71.0956 153.75C71.1529 153.75 71.1958 153.865 71.2245 154.094C71.2531 154.323 71.2675 154.566 71.2675 154.824C71.2675 155.082 71.2388 155.254 71.1815 155.34C71.0096 155.34 70.6802 155.311 70.1932 155.254C69.7063 155.225 69.1333 155.197 68.4745 155.168C67.8443 155.111 67.2427 155.068 66.6698 155.039C66.0969 155.01 65.6385 154.996 65.2948 154.996C64.8365 154.996 64.1919 155.025 63.3612 155.082C62.5591 155.139 61.7857 155.182 61.0409 155.211C60.2961 155.268 59.8091 155.311 59.58 155.34C59.4654 155.225 59.4081 154.924 59.4081 154.438C59.4081 153.979 59.4654 153.75 59.58 153.75C59.8091 153.75 60.1099 153.693 60.4823 153.578C60.8833 153.435 61.2557 153.277 61.5995 153.105C61.9719 152.934 62.1724 152.79 62.201 152.676C62.4016 151.874 62.5018 150.785 62.5018 149.41V145.543C62.5018 143.423 62.201 141.919 61.5995 141.031C61.0266 140.115 60.0956 139.656 58.8065 139.656C57.9185 139.656 57.2024 139.828 56.6581 140.172C56.1138 140.487 55.8417 140.945 55.8417 141.547V148.766C55.8417 150.656 55.9419 151.96 56.1425 152.676C56.1997 152.79 56.4003 152.934 56.744 153.105C57.0878 153.277 57.4602 153.435 57.8612 153.578C58.2622 153.693 58.5344 153.75 58.6776 153.75C58.7349 153.75 58.7779 153.865 58.8065 154.094C58.8352 154.323 58.8495 154.566 58.8495 154.824C58.8495 155.082 58.8208 155.254 58.7635 155.34C58.5344 155.311 58.0474 155.268 57.3026 155.211C56.5578 155.182 55.7701 155.139 54.9393 155.082C54.1372 155.025 53.507 154.996 53.0487 154.996C52.705 154.996 52.2323 155.01 51.6307 155.039C51.0578 155.068 50.4563 155.111 49.826 155.168C49.1958 155.197 48.6372 155.225 48.1503 155.254C47.6633 155.311 47.3339 155.34 47.162 155.34ZM79.9901 155.598C79.3313 155.598 78.6008 155.526 77.7987 155.383C76.9966 155.24 76.2518 155.039 75.5643 154.781C74.8768 154.523 74.3469 154.251 73.9745 153.965C73.6307 151.988 73.4589 150.241 73.4589 148.723C73.6021 148.637 73.8169 148.594 74.1034 148.594C75.0201 148.594 75.4927 148.723 75.5214 148.98C76.0083 151.816 77.5552 153.234 80.162 153.234C80.8495 153.234 81.4224 153.077 81.8807 152.762C82.3391 152.447 82.5682 151.974 82.5682 151.344C82.5682 150.742 82.3247 150.227 81.8378 149.797C81.3508 149.367 80.7779 148.98 80.119 148.637C79.4602 148.293 78.8586 147.978 78.3143 147.691C76.6529 146.889 75.4211 146.016 74.619 145.07C73.8169 144.096 73.4159 142.908 73.4159 141.504C73.4159 140.186 73.7596 139.126 74.4471 138.324C75.1346 137.493 76.0513 136.878 77.1971 136.477C78.343 136.076 79.5747 135.875 80.8925 135.875C83.3846 135.875 85.2466 136.161 86.4784 136.734C86.7649 137.995 86.9081 139.771 86.9081 142.062C86.9081 142.32 86.7219 142.449 86.3495 142.449C85.4615 142.449 84.9888 142.335 84.9315 142.105C84.6737 140.902 84.2297 139.957 83.5995 139.27C82.9979 138.582 82.024 138.238 80.6776 138.238C80.0474 138.238 79.5318 138.396 79.1307 138.711C78.7297 138.997 78.5292 139.427 78.5292 140C78.5292 140.659 78.8156 141.232 79.3885 141.719C79.9615 142.177 80.8065 142.678 81.9237 143.223C82.869 143.652 83.7857 144.154 84.6737 144.727C85.5617 145.271 86.2779 145.958 86.8221 146.789C87.3951 147.591 87.6815 148.608 87.6815 149.84C87.6815 151.73 86.951 153.163 85.4901 154.137C84.0578 155.111 82.2245 155.598 79.9901 155.598ZM105.557 155.383C105.385 155.383 105.299 155.125 105.299 154.609V153.02C105.299 152.79 105.241 152.733 105.127 152.848C104.525 153.478 103.637 154.051 102.463 154.566C101.317 155.082 100.071 155.34 98.7245 155.34C97.6073 155.34 96.619 154.996 95.7596 154.309C94.9289 153.621 94.2844 152.704 93.826 151.559C93.3677 150.384 93.1385 149.095 93.1385 147.691V143.523C93.1385 141.919 92.8807 140.845 92.3651 140.301C92.1359 140.014 91.8208 139.814 91.4198 139.699C91.0474 139.585 90.718 139.513 90.4315 139.484C90.1451 139.427 90.0018 139.37 90.0018 139.312C90.0018 138.31 90.0734 137.809 90.2167 137.809C90.4745 137.809 90.9471 137.751 91.6346 137.637C92.3508 137.522 93.1242 137.393 93.955 137.25C94.7857 137.078 95.5734 136.906 96.3182 136.734C97.0917 136.534 97.6789 136.376 98.08 136.262C98.1659 136.233 98.2375 136.204 98.2948 136.176C98.3807 136.147 98.4667 136.133 98.5526 136.133C98.6958 136.133 98.8391 136.233 98.9823 136.434C99.1255 136.605 99.1971 136.749 99.1971 136.863C99.0539 138.124 98.9393 139.112 98.8534 139.828C98.7675 140.544 98.7245 140.988 98.7245 141.16V145.758C98.7245 147.992 99.0109 149.568 99.5839 150.484C100.157 151.372 101.116 151.816 102.463 151.816C103.437 151.816 104.167 151.602 104.654 151.172C105.141 150.714 105.385 150.212 105.385 149.668V143.523C105.385 141.919 105.127 140.845 104.611 140.301C104.382 140.014 104.067 139.814 103.666 139.699C103.293 139.585 102.964 139.513 102.678 139.484C102.391 139.427 102.248 139.37 102.248 139.312C102.248 138.31 102.32 137.809 102.463 137.809C102.721 137.809 103.193 137.751 103.881 137.637C104.597 137.522 105.37 137.393 106.201 137.25C107.032 137.078 107.82 136.906 108.564 136.734C109.338 136.534 109.925 136.376 110.326 136.262L110.799 136.133C110.942 136.133 111.085 136.233 111.228 136.434C111.372 136.605 111.443 136.749 111.443 136.863C111.3 138.124 111.185 139.112 111.099 139.828C111.014 140.544 110.971 140.974 110.971 141.117V149.539C110.971 151.057 111.114 151.96 111.4 152.246C111.543 152.389 111.773 152.504 112.088 152.59C112.403 152.647 112.718 152.676 113.033 152.676H113.463C113.577 152.704 113.635 152.819 113.635 153.02C113.635 153.85 113.549 154.266 113.377 154.266C111.601 154.438 110.111 154.609 108.908 154.781C107.734 154.953 106.817 155.111 106.158 155.254L105.557 155.383ZM115.998 155.34C115.883 155.225 115.826 154.924 115.826 154.438C115.826 153.979 115.883 153.75 115.998 153.75C116.227 153.75 116.557 153.693 116.986 153.578C117.416 153.435 117.817 153.277 118.189 153.105C118.562 152.934 118.762 152.79 118.791 152.676C118.991 151.874 119.092 150.785 119.092 149.41V132.352C119.092 131.693 119.063 131.105 119.006 130.59C118.977 130.074 118.934 129.63 118.877 129.258C118.762 128.799 118.017 128.57 116.642 128.57H116.256C116.084 128.57 115.998 128.284 115.998 127.711C115.998 127.224 116.084 126.98 116.256 126.98C117.917 126.837 119.478 126.594 120.939 126.25C122.429 125.906 123.489 125.634 124.119 125.434L124.549 125.305H124.635C124.749 125.305 124.864 125.391 124.978 125.562C125.093 125.734 125.165 125.892 125.193 126.035C124.878 127.382 124.721 128.828 124.721 130.375L124.678 148.766C124.678 150.656 124.778 151.96 124.978 152.676C125.036 152.79 125.251 152.934 125.623 153.105C125.995 153.277 126.382 153.435 126.783 153.578C127.213 153.693 127.514 153.75 127.685 153.75C127.743 153.75 127.786 153.865 127.814 154.094C127.843 154.323 127.857 154.566 127.857 154.824C127.857 155.082 127.829 155.254 127.771 155.34C127.599 155.34 127.27 155.311 126.783 155.254C126.296 155.225 125.723 155.197 125.064 155.168C124.434 155.111 123.833 155.068 123.26 155.039C122.687 155.01 122.228 154.996 121.885 154.996C121.541 154.996 121.068 155.01 120.467 155.039C119.894 155.068 119.292 155.111 118.662 155.168C118.032 155.197 117.473 155.225 116.986 155.254C116.499 155.311 116.17 155.34 115.998 155.34ZM138.599 155.469C137.024 155.469 135.663 154.982 134.517 154.008C133.4 153.005 132.842 151.401 132.842 149.195V139.27H130.049C129.82 139.27 129.705 138.826 129.705 137.938C129.705 137.737 129.734 137.579 129.791 137.465C130.593 137.064 131.309 136.677 131.939 136.305C132.598 135.904 133.171 135.517 133.658 135.145C134.918 134.142 135.835 133.383 136.408 132.867C136.981 132.352 137.282 132.079 137.31 132.051C137.54 132.051 137.783 132.108 138.041 132.223C138.299 132.309 138.428 132.409 138.428 132.523V136.734H143.068C143.297 136.734 143.412 136.878 143.412 137.164C143.412 138.023 143.269 138.725 142.982 139.27H138.428V149.453C138.428 151.63 139.201 152.719 140.748 152.719C141.55 152.719 142.109 152.618 142.424 152.418C142.767 152.189 142.997 152.074 143.111 152.074C143.226 152.074 143.34 152.217 143.455 152.504C143.598 152.79 143.67 153.005 143.67 153.148C143.67 153.378 143.383 153.678 142.81 154.051C142.266 154.423 141.593 154.753 140.791 155.039C140.017 155.326 139.287 155.469 138.599 155.469ZM151.103 155.469C149.528 155.469 148.267 155.039 147.322 154.18C146.405 153.292 145.947 152.189 145.947 150.871C145.947 149.754 146.291 148.78 146.978 147.949C147.695 147.118 148.583 146.46 149.642 145.973C150.043 145.801 150.416 145.658 150.76 145.543C151.103 145.4 151.418 145.271 151.705 145.156C152.793 144.812 153.667 144.569 154.326 144.426C154.985 144.254 155.472 144.111 155.787 143.996C156.045 143.91 156.174 143.695 156.174 143.352V141.805C156.174 139.456 155.458 138.281 154.025 138.281C152.364 138.281 151.533 139.241 151.533 141.16C151.533 141.79 151.275 142.263 150.76 142.578C150.244 142.865 149.671 143.008 149.041 143.008C147.723 143.008 146.821 142.578 146.334 141.719C146.334 140.974 146.592 140.258 147.107 139.57C147.652 138.883 148.353 138.267 149.213 137.723C150.101 137.15 151.089 136.706 152.178 136.391C153.295 136.047 154.412 135.875 155.529 135.875C157.534 135.875 159.067 136.434 160.127 137.551C161.215 138.639 161.76 140.63 161.76 143.523V150.484C161.76 151.458 162.103 151.945 162.791 151.945C163.307 151.945 163.793 151.759 164.252 151.387C164.452 151.501 164.553 151.716 164.553 152.031C164.553 152.776 164.452 153.306 164.252 153.621C163.851 153.993 163.192 154.395 162.275 154.824C161.387 155.225 160.542 155.426 159.74 155.426C159.053 155.426 158.394 155.225 157.764 154.824C157.133 154.395 156.718 153.908 156.517 153.363C156.489 153.363 156.331 153.464 156.045 153.664C155.758 153.865 155.543 154.022 155.4 154.137C154.827 154.509 154.168 154.824 153.424 155.082C152.679 155.34 151.905 155.469 151.103 155.469ZM153.81 152.375C154.555 152.375 155.128 152.203 155.529 151.859C155.959 151.487 156.174 151.043 156.174 150.527V146.188L153.939 146.961C153.338 147.161 152.779 147.462 152.264 147.863C151.777 148.264 151.533 148.794 151.533 149.453C151.533 150.484 151.748 151.229 152.178 151.688C152.636 152.146 153.18 152.375 153.81 152.375ZM166.658 155.34C166.543 155.225 166.486 154.924 166.486 154.438C166.486 153.979 166.543 153.75 166.658 153.75C166.887 153.75 167.202 153.693 167.603 153.578C168.033 153.435 168.434 153.277 168.807 153.105C169.208 152.934 169.422 152.79 169.451 152.676C169.652 151.874 169.752 150.785 169.752 149.41V143.523C169.752 141.919 169.494 140.845 168.978 140.301C168.749 140.014 168.434 139.814 168.033 139.699C167.661 139.585 167.331 139.513 167.045 139.484C166.758 139.427 166.615 139.37 166.615 139.312C166.615 138.31 166.687 137.809 166.83 137.809C167.575 137.809 168.635 137.651 170.01 137.336C171.385 136.992 172.946 136.634 174.693 136.262L174.908 136.219C174.937 136.19 174.994 136.176 175.08 136.176L175.166 136.133C175.309 136.133 175.452 136.233 175.596 136.434C175.767 136.605 175.839 136.749 175.81 136.863L175.639 138.195C175.639 138.339 175.653 138.424 175.682 138.453C175.739 138.453 175.839 138.382 175.982 138.238C177.558 136.749 179.549 136.004 181.955 136.004C183.616 136.004 184.963 136.706 185.994 138.109C187.054 139.513 187.584 141.647 187.584 144.512V148.766C187.584 150.656 187.684 151.96 187.885 152.676C187.942 152.79 188.157 152.934 188.529 153.105C188.902 153.277 189.288 153.435 189.689 153.578C190.119 153.693 190.42 153.75 190.592 153.75C190.649 153.75 190.692 153.865 190.721 154.094C190.749 154.323 190.764 154.566 190.764 154.824C190.764 155.082 190.735 155.254 190.678 155.34C190.506 155.34 190.176 155.311 189.689 155.254C189.202 155.225 188.629 155.197 187.971 155.168C187.34 155.111 186.739 155.068 186.166 155.039C185.593 155.01 185.135 154.996 184.791 154.996C184.333 154.996 183.688 155.025 182.857 155.082C182.055 155.139 181.282 155.182 180.537 155.211C179.792 155.268 179.305 155.311 179.076 155.34C178.961 155.225 178.904 154.924 178.904 154.438C178.904 153.979 178.961 153.75 179.076 153.75C179.305 153.75 179.606 153.693 179.978 153.578C180.379 153.435 180.752 153.277 181.096 153.105C181.468 152.934 181.668 152.79 181.697 152.676C181.898 151.874 181.998 150.785 181.998 149.41V145.543C181.998 143.423 181.697 141.919 181.096 141.031C180.523 140.115 179.592 139.656 178.303 139.656C177.415 139.656 176.698 139.828 176.154 140.172C175.61 140.487 175.338 140.945 175.338 141.547V148.766C175.338 150.656 175.438 151.96 175.639 152.676C175.696 152.79 175.896 152.934 176.24 153.105C176.584 153.277 176.956 153.435 177.357 153.578C177.758 153.693 178.03 153.75 178.174 153.75C178.231 153.75 178.274 153.865 178.303 154.094C178.331 154.323 178.346 154.566 178.346 154.824C178.346 155.082 178.317 155.254 178.26 155.34C178.03 155.311 177.543 155.268 176.799 155.211C176.054 155.182 175.266 155.139 174.435 155.082C173.633 155.025 173.003 154.996 172.545 154.996C172.201 154.996 171.728 155.01 171.127 155.039C170.554 155.068 169.952 155.111 169.322 155.168C168.692 155.197 168.133 155.225 167.646 155.254C167.159 155.311 166.83 155.34 166.658 155.34ZM202.451 155.469C200.618 155.469 198.971 155.025 197.51 154.137C196.049 153.249 194.889 152.046 194.029 150.527C193.17 149.009 192.74 147.319 192.74 145.457C192.74 143.681 193.198 142.077 194.115 140.645C195.032 139.212 196.264 138.081 197.81 137.25C199.386 136.391 201.119 135.961 203.01 135.961C204.471 135.961 205.817 136.219 207.049 136.734C208.28 137.221 209.168 137.809 209.713 138.496C209.713 141.132 208.939 142.449 207.392 142.449C206.275 142.449 205.43 141.733 204.857 140.301C204.599 139.642 204.27 139.155 203.869 138.84C203.497 138.496 202.967 138.324 202.279 138.324C199.988 138.324 198.842 140.473 198.842 144.77C198.842 149.611 200.46 152.031 203.697 152.031C204.671 152.031 205.573 151.888 206.404 151.602C206.977 151.43 207.421 151.272 207.736 151.129C208.051 150.986 208.338 150.828 208.596 150.656C208.882 150.456 209.211 150.212 209.584 149.926C209.842 150.04 209.971 150.312 209.971 150.742C209.971 151.115 209.913 151.401 209.799 151.602C209.627 152.06 209.183 152.604 208.467 153.234C207.751 153.836 206.863 154.366 205.803 154.824C204.771 155.254 203.654 155.469 202.451 155.469ZM214.31 164.535C213.451 164.535 212.749 164.306 212.205 163.848C211.689 163.389 211.432 162.859 211.432 162.258C211.432 161.398 211.761 160.725 212.42 160.238C216.086 160.238 218.45 159.121 219.51 156.887L220.842 154.051L214.224 139.355C213.938 138.725 213.494 138.296 212.892 138.066C212.32 137.837 211.818 137.723 211.389 137.723C211.274 137.723 211.217 137.508 211.217 137.078C211.217 136.505 211.245 136.19 211.303 136.133C211.417 136.133 211.689 136.147 212.119 136.176C212.577 136.204 213.208 136.247 214.01 136.305C214.812 136.362 215.485 136.405 216.029 136.434C216.602 136.462 217.06 136.477 217.404 136.477C217.834 136.477 218.45 136.448 219.252 136.391C220.054 136.333 220.827 136.276 221.572 136.219C222.346 136.161 222.833 136.133 223.033 136.133C223.119 136.391 223.162 136.691 223.162 137.035C223.162 137.493 223.105 137.723 222.99 137.723C222.761 137.723 222.432 137.78 222.002 137.895C221.572 138.009 221.185 138.152 220.842 138.324C220.498 138.467 220.326 138.639 220.326 138.84C220.383 139.27 220.684 140.201 221.228 141.633C221.801 143.065 222.632 145.056 223.721 147.605C224.695 145.486 225.439 143.853 225.955 142.707C226.499 141.533 226.814 140.845 226.9 140.645C227.072 140.243 227.158 139.814 227.158 139.355C227.158 138.983 226.886 138.625 226.342 138.281C225.797 137.909 225.053 137.723 224.107 137.723C223.993 137.723 223.935 137.465 223.935 136.949C223.935 136.749 223.935 136.591 223.935 136.477C223.964 136.333 223.993 136.219 224.021 136.133C224.251 136.133 224.723 136.161 225.439 136.219C226.184 136.276 226.958 136.333 227.76 136.391C228.562 136.448 229.192 136.477 229.65 136.477C229.965 136.477 230.323 136.462 230.724 136.434C231.126 136.376 231.57 136.333 232.057 136.305L234.248 136.133C234.363 136.333 234.42 136.577 234.42 136.863C234.42 137.436 234.363 137.723 234.248 137.723C233.961 137.723 233.56 137.794 233.045 137.938C232.558 138.052 232.071 138.238 231.584 138.496C231.126 138.725 230.81 139.04 230.639 139.441L222.646 156.758C220.24 161.943 217.461 164.535 214.31 164.535Z" fill="#C85E2C"/>
</svg>
