<svg width="245" height="165" viewBox="0 0 245 165" fill="none" xmlns="http://www.w3.org/2000/svg">
<path d="M4.56738 121.585C4.23405 121.252 4.06738 120.543 4.06738 119.46C4.06738 117.793 4.23405 116.96 4.56738 116.96C5.23405 116.96 6.19238 116.835 7.44238 116.585C8.69238 116.335 9.85905 116.002 10.9424 115.585C12.0257 115.085 12.6507 114.627 12.8174 114.21C13.3174 112.293 13.5674 108.627 13.5674 103.21V55.96C13.5674 51.2933 13.3174 48.0433 12.8174 46.21C12.6507 45.71 11.984 45.21 10.8174 44.71C9.73405 44.1266 8.56738 43.6683 7.31738 43.335C6.06738 42.9183 5.10905 42.71 4.44238 42.71C4.10905 42.71 3.94238 41.96 3.94238 40.46C3.94238 39.1266 4.06738 38.335 4.31738 38.085C7.65072 38.2516 10.8174 38.4183 13.8174 38.585C16.9007 38.6683 19.859 38.71 22.6924 38.71L41.5674 38.46C44.6507 38.46 47.7757 38.8766 50.9424 39.71C54.109 40.46 57.1924 41.6683 60.1924 43.335C63.109 45.0016 65.484 47.335 67.3174 50.335C69.1507 53.335 70.0674 56.7933 70.0674 60.71C70.0674 63.5433 69.4424 66.085 68.1924 68.335C67.0257 70.585 65.6507 72.46 64.0674 73.96C62.484 75.3766 61.0257 76.335 59.6924 76.835C59.0257 77.085 58.8174 77.335 59.0674 77.585C61.0674 77.9183 63.109 78.96 65.1924 80.71C67.359 82.46 69.1924 84.7933 70.6924 87.71C72.1924 90.5433 72.9424 93.8766 72.9424 97.71C72.9424 102.46 71.609 106.627 68.9424 110.21C66.2757 113.793 62.5674 116.543 57.8174 118.46C53.0674 120.293 47.5257 121.168 41.1924 121.085L22.8174 120.835C20.3174 120.835 17.5257 120.918 14.4424 121.085C11.4424 121.168 9.02572 121.252 7.19238 121.335L4.56738 121.585ZM37.5674 74.71C40.8174 74.71 43.1924 74.335 44.6924 73.585C46.0257 72.9183 46.984 72.2933 47.5674 71.71C48.234 71.1266 48.9424 69.9183 49.6924 68.085C50.5257 66.1683 50.9424 63.7516 50.9424 60.835C50.9424 50.5016 47.109 45.335 39.4424 45.335C35.609 45.335 33.1924 45.5016 32.1924 45.835C31.4424 45.9183 31.0674 46.4183 31.0674 47.335V72.96C31.0674 74.1266 33.234 74.71 37.5674 74.71ZM41.3174 114.21C49.9007 114.21 54.1924 109.168 54.1924 99.085C54.1924 87.5016 49.0674 81.71 38.8174 81.71C36.234 81.71 34.109 81.9183 32.4424 82.335C31.5257 82.7516 31.0674 83.1266 31.0674 83.46V111.585C31.0674 112.418 31.359 113.002 31.9424 113.335C32.7757 113.918 35.9007 114.21 41.3174 114.21ZM80.1924 121.585C79.859 121.252 79.6924 120.543 79.6924 119.46C79.6924 117.793 79.859 116.96 80.1924 116.96C80.859 116.96 81.8174 116.835 83.0674 116.585C84.3174 116.335 85.484 116.002 86.5674 115.585C87.6507 115.085 88.2757 114.627 88.4424 114.21C88.9424 112.293 89.1924 108.627 89.1924 103.21V55.96C89.1924 51.2933 88.9424 48.0433 88.4424 46.21C88.2757 45.71 87.609 45.21 86.4424 44.71C85.359 44.1266 84.1924 43.6683 82.9424 43.335C81.6924 42.9183 80.734 42.71 80.0674 42.71C79.734 42.71 79.5674 41.96 79.5674 40.46C79.5674 39.1266 79.6924 38.335 79.9424 38.085C83.2757 38.2516 86.4424 38.4183 89.4424 38.585C92.5257 38.6683 95.484 38.71 98.3174 38.71L117.192 38.46C120.276 38.46 123.401 38.8766 126.567 39.71C129.734 40.46 132.817 41.6683 135.817 43.335C138.734 45.0016 141.109 47.335 142.942 50.335C144.776 53.335 145.692 56.7933 145.692 60.71C145.692 63.5433 145.067 66.085 143.817 68.335C142.651 70.585 141.276 72.46 139.692 73.96C138.109 75.3766 136.651 76.335 135.317 76.835C134.651 77.085 134.442 77.335 134.692 77.585C136.692 77.9183 138.734 78.96 140.817 80.71C142.984 82.46 144.817 84.7933 146.317 87.71C147.817 90.5433 148.567 93.8766 148.567 97.71C148.567 102.46 147.234 106.627 144.567 110.21C141.901 113.793 138.192 116.543 133.442 118.46C128.692 120.293 123.151 121.168 116.817 121.085L98.4424 120.835C95.9424 120.835 93.1507 120.918 90.0674 121.085C87.0674 121.168 84.6507 121.252 82.8174 121.335L80.1924 121.585ZM113.192 74.71C116.442 74.71 118.817 74.335 120.317 73.585C121.651 72.9183 122.609 72.2933 123.192 71.71C123.859 71.1266 124.567 69.9183 125.317 68.085C126.151 66.1683 126.567 63.7516 126.567 60.835C126.567 50.5016 122.734 45.335 115.067 45.335C111.234 45.335 108.817 45.5016 107.817 45.835C107.067 45.9183 106.692 46.4183 106.692 47.335V72.96C106.692 74.1266 108.859 74.71 113.192 74.71ZM116.942 114.21C125.526 114.21 129.817 109.168 129.817 99.085C129.817 87.5016 124.692 81.71 114.442 81.71C111.859 81.71 109.734 81.9183 108.067 82.335C107.151 82.7516 106.692 83.1266 106.692 83.46V111.585C106.692 112.418 106.984 113.002 107.567 113.335C108.401 113.918 111.526 114.21 116.942 114.21ZM167.567 109.96C159.651 101.627 155.692 91.6683 155.692 80.085C155.692 74.2516 156.734 68.7933 158.817 63.71C160.901 58.5433 163.776 54.0433 167.442 50.21C171.192 46.2933 175.484 43.2516 180.317 41.085C185.151 38.835 190.317 37.71 195.817 37.71C201.317 37.71 206.484 38.835 211.317 41.085C216.234 43.2516 220.526 46.2933 224.192 50.21C227.859 54.0433 230.734 58.5433 232.817 63.71C234.984 68.7933 236.067 74.2516 236.067 80.085C236.067 91.6683 232.109 101.627 224.192 109.96C218.776 115.627 212.692 119.377 205.942 121.21C199.192 123.127 192.442 123.127 185.692 121.21C179.026 119.377 172.984 115.627 167.567 109.96ZM197.817 115.335C201.984 115.335 205.442 113.877 208.192 110.96C211.026 108.043 213.109 104.127 214.442 99.21C215.859 94.21 216.567 88.6266 216.567 82.46C216.567 77.8766 216.192 73.5016 215.442 69.335C214.776 65.1683 213.651 61.1683 212.067 57.335C210.484 53.4183 208.151 50.335 205.067 48.085C201.984 45.835 198.276 44.71 193.942 44.71C189.526 44.71 185.859 46.2933 182.942 49.46C180.026 52.71 177.984 56.6683 176.817 61.335C175.734 66.0016 175.192 71.335 175.192 77.335C175.192 85.835 176.817 94.0433 180.067 101.96C181.734 105.96 184.067 109.21 187.067 111.71C190.151 114.127 193.734 115.335 197.817 115.335Z" fill="#C85E2C"/>
<path d="M15.5205 155.088C13.6872 155.088 12.04 154.644 10.5791 153.756C9.11816 152.868 7.95801 151.665 7.09863 150.147C6.23926 148.628 5.80957 146.938 5.80957 145.076C5.80957 143.3 6.2679 141.696 7.18457 140.264C8.10124 138.832 9.33301 137.7 10.8799 136.869C12.4554 136.01 14.1885 135.58 16.0791 135.58C17.54 135.58 18.8864 135.838 20.1182 136.354C21.3499 136.841 22.238 137.428 22.7822 138.115C22.7822 140.751 22.0088 142.069 20.4619 142.069C19.3447 142.069 18.4997 141.352 17.9268 139.92C17.6689 139.261 17.3395 138.774 16.9385 138.459C16.5661 138.115 16.0361 137.944 15.3486 137.944C13.057 137.944 11.9111 140.092 11.9111 144.389C11.9111 149.23 13.5296 151.651 16.7666 151.651C17.7406 151.651 18.6429 151.507 19.4736 151.221C20.0465 151.049 20.4906 150.892 20.8057 150.748C21.1208 150.605 21.4072 150.448 21.665 150.276C21.9515 150.075 22.2809 149.832 22.6533 149.545C22.9111 149.66 23.04 149.932 23.04 150.362C23.04 150.734 22.9827 151.02 22.8682 151.221C22.6963 151.679 22.2523 152.224 21.5361 152.854C20.82 153.455 19.932 153.985 18.8721 154.444C17.8408 154.873 16.7236 155.088 15.5205 155.088ZM35.3291 155.088C33.4671 155.088 31.7627 154.658 30.2158 153.799C28.6976 152.911 27.4801 151.737 26.5635 150.276C25.6755 148.786 25.2314 147.139 25.2314 145.334C25.2314 143.501 25.6755 141.854 26.5635 140.393C27.4801 138.932 28.6976 137.772 30.2158 136.912C31.7627 136.024 33.4671 135.58 35.3291 135.58C37.2197 135.58 38.9242 136.024 40.4424 136.912C41.9606 137.772 43.1637 138.932 44.0518 140.393C44.9684 141.854 45.4268 143.501 45.4268 145.334C45.4268 147.139 44.9827 148.786 44.0947 150.276C43.2067 151.737 41.9893 152.911 40.4424 153.799C38.9242 154.658 37.2197 155.088 35.3291 155.088ZM35.7588 152.725C36.5609 152.725 37.2197 152.453 37.7354 151.908C38.251 151.364 38.6234 150.648 38.8525 149.76C39.1104 148.843 39.2393 147.869 39.2393 146.838C39.2393 140.908 37.7354 137.944 34.7275 137.944C33.9255 137.944 33.2666 138.23 32.751 138.803C32.264 139.376 31.9059 140.121 31.6768 141.037C31.4476 141.954 31.333 142.942 31.333 144.002C31.333 149.817 32.8083 152.725 35.7588 152.725ZM47.6182 154.959C47.5036 154.845 47.4463 154.544 47.4463 154.057C47.4463 153.599 47.5036 153.369 47.6182 153.369C47.8473 153.369 48.1624 153.312 48.5635 153.198C48.9932 153.054 49.3942 152.897 49.7666 152.725C50.1676 152.553 50.3825 152.41 50.4111 152.295C50.6117 151.493 50.7119 150.405 50.7119 149.03V143.143C50.7119 141.539 50.4541 140.464 49.9385 139.92C49.7093 139.634 49.3942 139.433 48.9932 139.319C48.6208 139.204 48.2913 139.132 48.0049 139.104C47.7184 139.046 47.5752 138.989 47.5752 138.932C47.5752 137.929 47.6468 137.428 47.79 137.428C48.5348 137.428 49.5947 137.27 50.9697 136.955C52.3447 136.612 53.9059 136.253 55.6533 135.881L55.8682 135.838C55.8968 135.809 55.9541 135.795 56.04 135.795L56.126 135.752C56.2692 135.752 56.4124 135.852 56.5557 136.053C56.7275 136.225 56.7992 136.368 56.7705 136.483L56.5986 137.815C56.5986 137.958 56.613 138.044 56.6416 138.073C56.6989 138.073 56.7992 138.001 56.9424 137.858C58.5179 136.368 60.5088 135.623 62.915 135.623C64.5765 135.623 65.9229 136.325 66.9541 137.729C68.014 139.132 68.5439 141.267 68.5439 144.131V148.385C68.5439 150.276 68.6442 151.579 68.8447 152.295C68.902 152.41 69.1169 152.553 69.4893 152.725C69.8617 152.897 70.2484 153.054 70.6494 153.198C71.0791 153.312 71.3799 153.369 71.5518 153.369C71.609 153.369 71.652 153.484 71.6807 153.713C71.7093 153.942 71.7236 154.186 71.7236 154.444C71.7236 154.701 71.695 154.873 71.6377 154.959C71.4658 154.959 71.1364 154.931 70.6494 154.873C70.1624 154.845 69.5895 154.816 68.9307 154.787C68.3005 154.73 67.6989 154.687 67.126 154.658C66.5531 154.63 66.0947 154.615 65.751 154.615C65.2926 154.615 64.6481 154.644 63.8174 154.701C63.0153 154.759 62.2419 154.802 61.4971 154.83C60.7523 154.888 60.2653 154.931 60.0361 154.959C59.9215 154.845 59.8643 154.544 59.8643 154.057C59.8643 153.599 59.9215 153.369 60.0361 153.369C60.2653 153.369 60.5661 153.312 60.9385 153.198C61.3395 153.054 61.7119 152.897 62.0557 152.725C62.4281 152.553 62.6286 152.41 62.6572 152.295C62.8577 151.493 62.958 150.405 62.958 149.03V145.162C62.958 143.043 62.6572 141.539 62.0557 140.651C61.4827 139.734 60.5518 139.276 59.2627 139.276C58.3747 139.276 57.6585 139.448 57.1143 139.791C56.57 140.106 56.2979 140.565 56.2979 141.166V148.385C56.2979 150.276 56.3981 151.579 56.5986 152.295C56.6559 152.41 56.8564 152.553 57.2002 152.725C57.5439 152.897 57.9163 153.054 58.3174 153.198C58.7184 153.312 58.9906 153.369 59.1338 153.369C59.1911 153.369 59.234 153.484 59.2627 153.713C59.2913 153.942 59.3057 154.186 59.3057 154.444C59.3057 154.701 59.277 154.873 59.2197 154.959C58.9906 154.931 58.5036 154.888 57.7588 154.83C57.014 154.802 56.2262 154.759 55.3955 154.701C54.5934 154.644 53.9632 154.615 53.5049 154.615C53.1611 154.615 52.6885 154.63 52.0869 154.658C51.514 154.687 50.9124 154.73 50.2822 154.787C49.652 154.816 49.0934 154.845 48.6064 154.873C48.1195 154.931 47.79 154.959 47.6182 154.959ZM80.4463 155.217C79.7874 155.217 79.057 155.145 78.2549 155.002C77.4528 154.859 76.708 154.658 76.0205 154.401C75.333 154.143 74.8031 153.871 74.4307 153.584C74.0869 151.608 73.915 149.86 73.915 148.342C74.0583 148.256 74.2731 148.213 74.5596 148.213C75.4762 148.213 75.9489 148.342 75.9775 148.6C76.4645 151.436 78.0114 152.854 80.6182 152.854C81.3057 152.854 81.8786 152.696 82.3369 152.381C82.7952 152.066 83.0244 151.593 83.0244 150.963C83.0244 150.362 82.7809 149.846 82.2939 149.416C81.807 148.987 81.234 148.6 80.5752 148.256C79.9163 147.912 79.3148 147.597 78.7705 147.311C77.109 146.509 75.8773 145.635 75.0752 144.69C74.2731 143.716 73.8721 142.527 73.8721 141.123C73.8721 139.806 74.2158 138.746 74.9033 137.944C75.5908 137.113 76.5075 136.497 77.6533 136.096C78.7992 135.695 80.0309 135.494 81.3486 135.494C83.8408 135.494 85.7028 135.781 86.9346 136.354C87.221 137.614 87.3643 139.39 87.3643 141.682C87.3643 141.94 87.1781 142.069 86.8057 142.069C85.9176 142.069 85.445 141.954 85.3877 141.725C85.1299 140.522 84.6859 139.576 84.0557 138.889C83.4541 138.201 82.4801 137.858 81.1338 137.858C80.5036 137.858 79.988 138.015 79.5869 138.33C79.1859 138.617 78.9854 139.046 78.9854 139.619C78.9854 140.278 79.2718 140.851 79.8447 141.338C80.4176 141.796 81.2627 142.298 82.3799 142.842C83.3252 143.272 84.2419 143.773 85.1299 144.346C86.0179 144.89 86.734 145.578 87.2783 146.408C87.8512 147.211 88.1377 148.227 88.1377 149.459C88.1377 151.35 87.4072 152.782 85.9463 153.756C84.514 154.73 82.6807 155.217 80.4463 155.217ZM106.013 155.002C105.841 155.002 105.755 154.744 105.755 154.229V152.639C105.755 152.41 105.698 152.352 105.583 152.467C104.981 153.097 104.093 153.67 102.919 154.186C101.773 154.701 100.527 154.959 99.1807 154.959C98.0635 154.959 97.0752 154.615 96.2158 153.928C95.3851 153.24 94.7406 152.324 94.2822 151.178C93.8239 150.003 93.5947 148.714 93.5947 147.311V143.143C93.5947 141.539 93.3369 140.464 92.8213 139.92C92.5921 139.634 92.277 139.433 91.876 139.319C91.5036 139.204 91.1742 139.132 90.8877 139.104C90.6012 139.046 90.458 138.989 90.458 138.932C90.458 137.929 90.5296 137.428 90.6729 137.428C90.9307 137.428 91.4033 137.371 92.0908 137.256C92.807 137.142 93.5804 137.013 94.4111 136.869C95.2419 136.698 96.0296 136.526 96.7744 136.354C97.5479 136.153 98.1351 135.996 98.5361 135.881C98.6221 135.852 98.6937 135.824 98.751 135.795C98.8369 135.767 98.9229 135.752 99.0088 135.752C99.152 135.752 99.2952 135.852 99.4385 136.053C99.5817 136.225 99.6533 136.368 99.6533 136.483C99.5101 137.743 99.3955 138.731 99.3096 139.448C99.2236 140.164 99.1807 140.608 99.1807 140.78V145.377C99.1807 147.612 99.4671 149.187 100.04 150.104C100.613 150.992 101.573 151.436 102.919 151.436C103.893 151.436 104.623 151.221 105.11 150.791C105.597 150.333 105.841 149.832 105.841 149.287V143.143C105.841 141.539 105.583 140.464 105.067 139.92C104.838 139.634 104.523 139.433 104.122 139.319C103.75 139.204 103.42 139.132 103.134 139.104C102.847 139.046 102.704 138.989 102.704 138.932C102.704 137.929 102.776 137.428 102.919 137.428C103.177 137.428 103.649 137.371 104.337 137.256C105.053 137.142 105.826 137.013 106.657 136.869C107.488 136.698 108.276 136.526 109.021 136.354C109.794 136.153 110.381 135.996 110.782 135.881L111.255 135.752C111.398 135.752 111.541 135.852 111.685 136.053C111.828 136.225 111.899 136.368 111.899 136.483C111.756 137.743 111.642 138.731 111.556 139.448C111.47 140.164 111.427 140.593 111.427 140.737V149.158C111.427 150.677 111.57 151.579 111.856 151.865C112 152.009 112.229 152.123 112.544 152.209C112.859 152.267 113.174 152.295 113.489 152.295H113.919C114.034 152.324 114.091 152.438 114.091 152.639C114.091 153.47 114.005 153.885 113.833 153.885C112.057 154.057 110.567 154.229 109.364 154.401C108.19 154.573 107.273 154.73 106.614 154.873L106.013 155.002ZM116.454 154.959C116.34 154.845 116.282 154.544 116.282 154.057C116.282 153.599 116.34 153.369 116.454 153.369C116.683 153.369 117.013 153.312 117.442 153.198C117.872 153.054 118.273 152.897 118.646 152.725C119.018 152.553 119.218 152.41 119.247 152.295C119.448 151.493 119.548 150.405 119.548 149.03V131.971C119.548 131.312 119.519 130.725 119.462 130.209C119.433 129.694 119.39 129.25 119.333 128.877C119.218 128.419 118.474 128.19 117.099 128.19H116.712C116.54 128.19 116.454 127.903 116.454 127.33C116.454 126.843 116.54 126.6 116.712 126.6C118.373 126.457 119.935 126.213 121.396 125.869C122.885 125.526 123.945 125.253 124.575 125.053L125.005 124.924H125.091C125.205 124.924 125.32 125.01 125.435 125.182C125.549 125.354 125.621 125.511 125.649 125.655C125.334 127.001 125.177 128.448 125.177 129.994L125.134 148.385C125.134 150.276 125.234 151.579 125.435 152.295C125.492 152.41 125.707 152.553 126.079 152.725C126.451 152.897 126.838 153.054 127.239 153.198C127.669 153.312 127.97 153.369 128.142 153.369C128.199 153.369 128.242 153.484 128.271 153.713C128.299 153.942 128.313 154.186 128.313 154.444C128.313 154.701 128.285 154.873 128.228 154.959C128.056 154.959 127.726 154.931 127.239 154.873C126.752 154.845 126.179 154.816 125.521 154.787C124.89 154.73 124.289 154.687 123.716 154.658C123.143 154.63 122.685 154.615 122.341 154.615C121.997 154.615 121.524 154.63 120.923 154.658C120.35 154.687 119.748 154.73 119.118 154.787C118.488 154.816 117.929 154.845 117.442 154.873C116.955 154.931 116.626 154.959 116.454 154.959ZM139.056 155.088C137.48 155.088 136.119 154.601 134.974 153.627C133.856 152.625 133.298 151.02 133.298 148.815V138.889H130.505C130.276 138.889 130.161 138.445 130.161 137.557C130.161 137.356 130.19 137.199 130.247 137.084C131.049 136.683 131.765 136.296 132.396 135.924C133.054 135.523 133.627 135.136 134.114 134.764C135.375 133.761 136.291 133.002 136.864 132.487C137.437 131.971 137.738 131.699 137.767 131.67C137.996 131.67 138.239 131.727 138.497 131.842C138.755 131.928 138.884 132.028 138.884 132.143V136.354H143.524C143.754 136.354 143.868 136.497 143.868 136.783C143.868 137.643 143.725 138.345 143.438 138.889H138.884V149.073C138.884 151.25 139.657 152.338 141.204 152.338C142.006 152.338 142.565 152.238 142.88 152.037C143.224 151.808 143.453 151.694 143.567 151.694C143.682 151.694 143.797 151.837 143.911 152.123C144.054 152.41 144.126 152.625 144.126 152.768C144.126 152.997 143.84 153.298 143.267 153.67C142.722 154.043 142.049 154.372 141.247 154.658C140.474 154.945 139.743 155.088 139.056 155.088ZM151.56 155.088C149.984 155.088 148.724 154.658 147.778 153.799C146.862 152.911 146.403 151.808 146.403 150.49C146.403 149.373 146.747 148.399 147.435 147.569C148.151 146.738 149.039 146.079 150.099 145.592C150.5 145.42 150.872 145.277 151.216 145.162C151.56 145.019 151.875 144.89 152.161 144.776C153.25 144.432 154.123 144.188 154.782 144.045C155.441 143.873 155.928 143.73 156.243 143.615C156.501 143.53 156.63 143.315 156.63 142.971V141.424C156.63 139.075 155.914 137.901 154.481 137.901C152.82 137.901 151.989 138.86 151.989 140.78C151.989 141.41 151.731 141.882 151.216 142.198C150.7 142.484 150.127 142.627 149.497 142.627C148.179 142.627 147.277 142.198 146.79 141.338C146.79 140.593 147.048 139.877 147.563 139.19C148.108 138.502 148.81 137.886 149.669 137.342C150.557 136.769 151.545 136.325 152.634 136.01C153.751 135.666 154.868 135.494 155.985 135.494C157.991 135.494 159.523 136.053 160.583 137.17C161.672 138.259 162.216 140.25 162.216 143.143V150.104C162.216 151.078 162.56 151.565 163.247 151.565C163.763 151.565 164.25 151.378 164.708 151.006C164.909 151.121 165.009 151.336 165.009 151.651C165.009 152.395 164.909 152.925 164.708 153.24C164.307 153.613 163.648 154.014 162.731 154.444C161.843 154.845 160.998 155.045 160.196 155.045C159.509 155.045 158.85 154.845 158.22 154.444C157.59 154.014 157.174 153.527 156.974 152.983C156.945 152.983 156.787 153.083 156.501 153.283C156.215 153.484 156 153.642 155.856 153.756C155.284 154.128 154.625 154.444 153.88 154.701C153.135 154.959 152.362 155.088 151.56 155.088ZM154.267 151.994C155.011 151.994 155.584 151.823 155.985 151.479C156.415 151.106 156.63 150.662 156.63 150.147V145.807L154.396 146.58C153.794 146.781 153.235 147.082 152.72 147.483C152.233 147.884 151.989 148.414 151.989 149.073C151.989 150.104 152.204 150.849 152.634 151.307C153.092 151.765 153.636 151.994 154.267 151.994ZM167.114 154.959C167 154.845 166.942 154.544 166.942 154.057C166.942 153.599 167 153.369 167.114 153.369C167.343 153.369 167.659 153.312 168.06 153.198C168.489 153.054 168.89 152.897 169.263 152.725C169.664 152.553 169.879 152.41 169.907 152.295C170.108 151.493 170.208 150.405 170.208 149.03V143.143C170.208 141.539 169.95 140.464 169.435 139.92C169.205 139.634 168.89 139.433 168.489 139.319C168.117 139.204 167.787 139.132 167.501 139.104C167.215 139.046 167.071 138.989 167.071 138.932C167.071 137.929 167.143 137.428 167.286 137.428C168.031 137.428 169.091 137.27 170.466 136.955C171.841 136.612 173.402 136.253 175.149 135.881L175.364 135.838C175.393 135.809 175.45 135.795 175.536 135.795L175.622 135.752C175.765 135.752 175.909 135.852 176.052 136.053C176.224 136.225 176.295 136.368 176.267 136.483L176.095 137.815C176.095 137.958 176.109 138.044 176.138 138.073C176.195 138.073 176.295 138.001 176.438 137.858C178.014 136.368 180.005 135.623 182.411 135.623C184.073 135.623 185.419 136.325 186.45 137.729C187.51 139.132 188.04 141.267 188.04 144.131V148.385C188.04 150.276 188.14 151.579 188.341 152.295C188.398 152.41 188.613 152.553 188.985 152.725C189.358 152.897 189.744 153.054 190.146 153.198C190.575 153.312 190.876 153.369 191.048 153.369C191.105 153.369 191.148 153.484 191.177 153.713C191.205 153.942 191.22 154.186 191.22 154.444C191.22 154.701 191.191 154.873 191.134 154.959C190.962 154.959 190.632 154.931 190.146 154.873C189.659 154.845 189.086 154.816 188.427 154.787C187.797 154.73 187.195 154.687 186.622 154.658C186.049 154.63 185.591 154.615 185.247 154.615C184.789 154.615 184.144 154.644 183.313 154.701C182.511 154.759 181.738 154.802 180.993 154.83C180.248 154.888 179.761 154.931 179.532 154.959C179.418 154.845 179.36 154.544 179.36 154.057C179.36 153.599 179.418 153.369 179.532 153.369C179.761 153.369 180.062 153.312 180.435 153.198C180.836 153.054 181.208 152.897 181.552 152.725C181.924 152.553 182.125 152.41 182.153 152.295C182.354 151.493 182.454 150.405 182.454 149.03V145.162C182.454 143.043 182.153 141.539 181.552 140.651C180.979 139.734 180.048 139.276 178.759 139.276C177.871 139.276 177.155 139.448 176.61 139.791C176.066 140.106 175.794 140.565 175.794 141.166V148.385C175.794 150.276 175.894 151.579 176.095 152.295C176.152 152.41 176.353 152.553 176.696 152.725C177.04 152.897 177.412 153.054 177.813 153.198C178.215 153.312 178.487 153.369 178.63 153.369C178.687 153.369 178.73 153.484 178.759 153.713C178.787 153.942 178.802 154.186 178.802 154.444C178.802 154.701 178.773 154.873 178.716 154.959C178.487 154.931 178 154.888 177.255 154.83C176.51 154.802 175.722 154.759 174.892 154.701C174.09 154.644 173.459 154.615 173.001 154.615C172.657 154.615 172.185 154.63 171.583 154.658C171.01 154.687 170.409 154.73 169.778 154.787C169.148 154.816 168.59 154.845 168.103 154.873C167.616 154.931 167.286 154.959 167.114 154.959ZM202.907 155.088C201.074 155.088 199.427 154.644 197.966 153.756C196.505 152.868 195.345 151.665 194.485 150.147C193.626 148.628 193.196 146.938 193.196 145.076C193.196 143.3 193.655 141.696 194.571 140.264C195.488 138.832 196.72 137.7 198.267 136.869C199.842 136.01 201.575 135.58 203.466 135.58C204.927 135.58 206.273 135.838 207.505 136.354C208.737 136.841 209.625 137.428 210.169 138.115C210.169 140.751 209.396 142.069 207.849 142.069C206.731 142.069 205.886 141.352 205.313 139.92C205.056 139.261 204.726 138.774 204.325 138.459C203.953 138.115 203.423 137.944 202.735 137.944C200.444 137.944 199.298 140.092 199.298 144.389C199.298 149.23 200.916 151.651 204.153 151.651C205.127 151.651 206.03 151.507 206.86 151.221C207.433 151.049 207.877 150.892 208.192 150.748C208.507 150.605 208.794 150.448 209.052 150.276C209.338 150.075 209.668 149.832 210.04 149.545C210.298 149.66 210.427 149.932 210.427 150.362C210.427 150.734 210.369 151.02 210.255 151.221C210.083 151.679 209.639 152.224 208.923 152.854C208.207 153.455 207.319 153.985 206.259 154.444C205.228 154.873 204.11 155.088 202.907 155.088ZM214.767 164.155C213.907 164.155 213.205 163.925 212.661 163.467C212.146 163.009 211.888 162.479 211.888 161.877C211.888 161.018 212.217 160.345 212.876 159.858C216.543 159.858 218.906 158.74 219.966 156.506L221.298 153.67L214.681 138.975C214.394 138.345 213.95 137.915 213.349 137.686C212.776 137.457 212.274 137.342 211.845 137.342C211.73 137.342 211.673 137.127 211.673 136.698C211.673 136.125 211.701 135.809 211.759 135.752C211.873 135.752 212.146 135.767 212.575 135.795C213.034 135.824 213.664 135.867 214.466 135.924C215.268 135.981 215.941 136.024 216.485 136.053C217.058 136.082 217.517 136.096 217.86 136.096C218.29 136.096 218.906 136.067 219.708 136.01C220.51 135.953 221.284 135.895 222.028 135.838C222.802 135.781 223.289 135.752 223.489 135.752C223.575 136.01 223.618 136.311 223.618 136.655C223.618 137.113 223.561 137.342 223.446 137.342C223.217 137.342 222.888 137.399 222.458 137.514C222.028 137.628 221.642 137.772 221.298 137.944C220.954 138.087 220.782 138.259 220.782 138.459C220.84 138.889 221.14 139.82 221.685 141.252C222.257 142.684 223.088 144.675 224.177 147.225C225.151 145.105 225.896 143.472 226.411 142.326C226.955 141.152 227.271 140.464 227.356 140.264C227.528 139.863 227.614 139.433 227.614 138.975C227.614 138.602 227.342 138.244 226.798 137.901C226.254 137.528 225.509 137.342 224.563 137.342C224.449 137.342 224.392 137.084 224.392 136.569C224.392 136.368 224.392 136.211 224.392 136.096C224.42 135.953 224.449 135.838 224.478 135.752C224.707 135.752 225.179 135.781 225.896 135.838C226.64 135.895 227.414 135.953 228.216 136.01C229.018 136.067 229.648 136.096 230.106 136.096C230.422 136.096 230.78 136.082 231.181 136.053C231.582 135.996 232.026 135.953 232.513 135.924L234.704 135.752C234.819 135.953 234.876 136.196 234.876 136.483C234.876 137.056 234.819 137.342 234.704 137.342C234.418 137.342 234.017 137.414 233.501 137.557C233.014 137.671 232.527 137.858 232.04 138.115C231.582 138.345 231.267 138.66 231.095 139.061L223.103 156.377C220.696 161.562 217.918 164.155 214.767 164.155Z" fill="#C85E2C"/>
</svg>
