<svg width="547" height="347" viewBox="0 0 547 347" fill="none" xmlns="http://www.w3.org/2000/svg">
<rect x="0.655518" y="0.93042" width="545.476" height="345.851" fill="#003554"/>
<path d="M155.287 205.974C154.954 205.641 154.787 204.932 154.787 203.849C154.787 202.182 154.954 201.349 155.287 201.349C155.954 201.349 156.912 201.224 158.162 200.974C159.412 200.724 160.579 200.391 161.662 199.974C162.745 199.474 163.37 199.016 163.537 198.599C164.037 196.682 164.287 193.016 164.287 187.599V140.349C164.287 135.682 164.037 132.432 163.537 130.599C163.37 130.099 162.704 129.599 161.537 129.099C160.454 128.516 159.287 128.057 158.037 127.724C156.787 127.307 155.829 127.099 155.162 127.099C154.829 127.099 154.662 126.349 154.662 124.849C154.662 123.516 154.787 122.724 155.037 122.474C158.37 122.641 161.537 122.807 164.537 122.974C167.62 123.057 170.579 123.099 173.412 123.099L192.287 122.849C195.37 122.849 198.495 123.266 201.662 124.099C204.829 124.849 207.912 126.057 210.912 127.724C213.829 129.391 216.204 131.724 218.037 134.724C219.87 137.724 220.787 141.182 220.787 145.099C220.787 147.932 220.162 150.474 218.912 152.724C217.745 154.974 216.37 156.849 214.787 158.349C213.204 159.766 211.745 160.724 210.412 161.224C209.745 161.474 209.537 161.724 209.787 161.974C211.787 162.307 213.829 163.349 215.912 165.099C218.079 166.849 219.912 169.182 221.412 172.099C222.912 174.932 223.662 178.266 223.662 182.099C223.662 186.849 222.329 191.016 219.662 194.599C216.995 198.182 213.287 200.932 208.537 202.849C203.787 204.682 198.245 205.557 191.912 205.474L173.537 205.224C171.037 205.224 168.245 205.307 165.162 205.474C162.162 205.557 159.745 205.641 157.912 205.724L155.287 205.974ZM188.287 159.099C191.537 159.099 193.912 158.724 195.412 157.974C196.745 157.307 197.704 156.682 198.287 156.099C198.954 155.516 199.662 154.307 200.412 152.474C201.245 150.557 201.662 148.141 201.662 145.224C201.662 134.891 197.829 129.724 190.162 129.724C186.329 129.724 183.912 129.891 182.912 130.224C182.162 130.307 181.787 130.807 181.787 131.724V157.349C181.787 158.516 183.954 159.099 188.287 159.099ZM192.037 198.599C200.62 198.599 204.912 193.557 204.912 183.474C204.912 171.891 199.787 166.099 189.537 166.099C186.954 166.099 184.829 166.307 183.162 166.724C182.245 167.141 181.787 167.516 181.787 167.849V195.974C181.787 196.807 182.079 197.391 182.662 197.724C183.495 198.307 186.62 198.599 192.037 198.599ZM230.912 205.974C230.579 205.641 230.412 204.932 230.412 203.849C230.412 202.182 230.579 201.349 230.912 201.349C231.579 201.349 232.537 201.224 233.787 200.974C235.037 200.724 236.204 200.391 237.287 199.974C238.37 199.474 238.995 199.016 239.162 198.599C239.662 196.682 239.912 193.016 239.912 187.599V140.349C239.912 135.682 239.662 132.432 239.162 130.599C238.995 130.099 238.329 129.599 237.162 129.099C236.079 128.516 234.912 128.057 233.662 127.724C232.412 127.307 231.454 127.099 230.787 127.099C230.454 127.099 230.287 126.349 230.287 124.849C230.287 123.516 230.412 122.724 230.662 122.474C233.995 122.641 237.162 122.807 240.162 122.974C243.245 123.057 246.204 123.099 249.037 123.099L267.912 122.849C270.995 122.849 274.12 123.266 277.287 124.099C280.454 124.849 283.537 126.057 286.537 127.724C289.454 129.391 291.829 131.724 293.662 134.724C295.495 137.724 296.412 141.182 296.412 145.099C296.412 147.932 295.787 150.474 294.537 152.724C293.37 154.974 291.995 156.849 290.412 158.349C288.829 159.766 287.37 160.724 286.037 161.224C285.37 161.474 285.162 161.724 285.412 161.974C287.412 162.307 289.454 163.349 291.537 165.099C293.704 166.849 295.537 169.182 297.037 172.099C298.537 174.932 299.287 178.266 299.287 182.099C299.287 186.849 297.954 191.016 295.287 194.599C292.62 198.182 288.912 200.932 284.162 202.849C279.412 204.682 273.87 205.557 267.537 205.474L249.162 205.224C246.662 205.224 243.87 205.307 240.787 205.474C237.787 205.557 235.37 205.641 233.537 205.724L230.912 205.974ZM263.912 159.099C267.162 159.099 269.537 158.724 271.037 157.974C272.37 157.307 273.329 156.682 273.912 156.099C274.579 155.516 275.287 154.307 276.037 152.474C276.87 150.557 277.287 148.141 277.287 145.224C277.287 134.891 273.454 129.724 265.787 129.724C261.954 129.724 259.537 129.891 258.537 130.224C257.787 130.307 257.412 130.807 257.412 131.724V157.349C257.412 158.516 259.579 159.099 263.912 159.099ZM267.662 198.599C276.245 198.599 280.537 193.557 280.537 183.474C280.537 171.891 275.412 166.099 265.162 166.099C262.579 166.099 260.454 166.307 258.787 166.724C257.87 167.141 257.412 167.516 257.412 167.849V195.974C257.412 196.807 257.704 197.391 258.287 197.724C259.12 198.307 262.245 198.599 267.662 198.599ZM318.287 194.349C310.37 186.016 306.412 176.057 306.412 164.474C306.412 158.641 307.454 153.182 309.537 148.099C311.62 142.932 314.495 138.432 318.162 134.599C321.912 130.682 326.204 127.641 331.037 125.474C335.87 123.224 341.037 122.099 346.537 122.099C352.037 122.099 357.204 123.224 362.037 125.474C366.954 127.641 371.245 130.682 374.912 134.599C378.579 138.432 381.454 142.932 383.537 148.099C385.704 153.182 386.787 158.641 386.787 164.474C386.787 176.057 382.829 186.016 374.912 194.349C369.495 200.016 363.412 203.766 356.662 205.599C349.912 207.516 343.162 207.516 336.412 205.599C329.745 203.766 323.704 200.016 318.287 194.349ZM348.537 199.724C352.704 199.724 356.162 198.266 358.912 195.349C361.745 192.432 363.829 188.516 365.162 183.599C366.579 178.599 367.287 173.016 367.287 166.849C367.287 162.266 366.912 157.891 366.162 153.724C365.495 149.557 364.37 145.557 362.787 141.724C361.204 137.807 358.87 134.724 355.787 132.474C352.704 130.224 348.995 129.099 344.662 129.099C340.245 129.099 336.579 130.682 333.662 133.849C330.745 137.099 328.704 141.057 327.537 145.724C326.454 150.391 325.912 155.724 325.912 161.724C325.912 170.224 327.537 178.432 330.787 186.349C332.454 190.349 334.787 193.599 337.787 196.099C340.87 198.516 344.454 199.724 348.537 199.724Z" fill="#C85E2C"/>
<path d="M166.24 239.477C164.407 239.477 162.76 239.033 161.299 238.145C159.838 237.257 158.678 236.054 157.818 234.536C156.959 233.018 156.529 231.328 156.529 229.466C156.529 227.69 156.988 226.085 157.904 224.653C158.821 223.221 160.053 222.089 161.6 221.259C163.175 220.399 164.908 219.969 166.799 219.969C168.26 219.969 169.606 220.227 170.838 220.743C172.07 221.23 172.958 221.817 173.502 222.505C173.502 225.14 172.729 226.458 171.182 226.458C170.064 226.458 169.219 225.742 168.646 224.309C168.389 223.65 168.059 223.163 167.658 222.848C167.286 222.505 166.756 222.333 166.068 222.333C163.777 222.333 162.631 224.481 162.631 228.778C162.631 233.619 164.249 236.04 167.486 236.04C168.46 236.04 169.363 235.897 170.193 235.61C170.766 235.438 171.21 235.281 171.525 235.137C171.84 234.994 172.127 234.837 172.385 234.665C172.671 234.464 173.001 234.221 173.373 233.934C173.631 234.049 173.76 234.321 173.76 234.751C173.76 235.123 173.702 235.41 173.588 235.61C173.416 236.068 172.972 236.613 172.256 237.243C171.54 237.844 170.652 238.374 169.592 238.833C168.561 239.262 167.443 239.477 166.24 239.477ZM186.049 239.477C184.187 239.477 182.482 239.048 180.936 238.188C179.417 237.3 178.2 236.126 177.283 234.665C176.395 233.175 175.951 231.528 175.951 229.723C175.951 227.89 176.395 226.243 177.283 224.782C178.2 223.321 179.417 222.161 180.936 221.302C182.482 220.413 184.187 219.969 186.049 219.969C187.939 219.969 189.644 220.413 191.162 221.302C192.68 222.161 193.883 223.321 194.771 224.782C195.688 226.243 196.146 227.89 196.146 229.723C196.146 231.528 195.702 233.175 194.814 234.665C193.926 236.126 192.709 237.3 191.162 238.188C189.644 239.048 187.939 239.477 186.049 239.477ZM186.479 237.114C187.281 237.114 187.939 236.842 188.455 236.298C188.971 235.753 189.343 235.037 189.572 234.149C189.83 233.233 189.959 232.259 189.959 231.227C189.959 225.298 188.455 222.333 185.447 222.333C184.645 222.333 183.986 222.619 183.471 223.192C182.984 223.765 182.626 224.51 182.396 225.427C182.167 226.343 182.053 227.331 182.053 228.391C182.053 234.206 183.528 237.114 186.479 237.114ZM198.338 239.348C198.223 239.234 198.166 238.933 198.166 238.446C198.166 237.988 198.223 237.759 198.338 237.759C198.567 237.759 198.882 237.701 199.283 237.587C199.713 237.443 200.114 237.286 200.486 237.114C200.887 236.942 201.102 236.799 201.131 236.684C201.331 235.882 201.432 234.794 201.432 233.419V227.532C201.432 225.928 201.174 224.854 200.658 224.309C200.429 224.023 200.114 223.822 199.713 223.708C199.34 223.593 199.011 223.522 198.725 223.493C198.438 223.436 198.295 223.378 198.295 223.321C198.295 222.318 198.367 221.817 198.51 221.817C199.255 221.817 200.314 221.66 201.689 221.344C203.064 221.001 204.626 220.643 206.373 220.27L206.588 220.227C206.617 220.199 206.674 220.184 206.76 220.184L206.846 220.141C206.989 220.141 207.132 220.242 207.275 220.442C207.447 220.614 207.519 220.757 207.49 220.872L207.318 222.204C207.318 222.347 207.333 222.433 207.361 222.462C207.419 222.462 207.519 222.39 207.662 222.247C209.238 220.757 211.229 220.012 213.635 220.012C215.296 220.012 216.643 220.714 217.674 222.118C218.734 223.522 219.264 225.656 219.264 228.52V232.774C219.264 234.665 219.364 235.968 219.564 236.684C219.622 236.799 219.837 236.942 220.209 237.114C220.581 237.286 220.968 237.443 221.369 237.587C221.799 237.701 222.1 237.759 222.271 237.759C222.329 237.759 222.372 237.873 222.4 238.102C222.429 238.331 222.443 238.575 222.443 238.833C222.443 239.091 222.415 239.262 222.357 239.348C222.186 239.348 221.856 239.32 221.369 239.262C220.882 239.234 220.309 239.205 219.65 239.177C219.02 239.119 218.419 239.076 217.846 239.048C217.273 239.019 216.814 239.005 216.471 239.005C216.012 239.005 215.368 239.033 214.537 239.091C213.735 239.148 212.962 239.191 212.217 239.219C211.472 239.277 210.985 239.32 210.756 239.348C210.641 239.234 210.584 238.933 210.584 238.446C210.584 237.988 210.641 237.759 210.756 237.759C210.985 237.759 211.286 237.701 211.658 237.587C212.059 237.443 212.432 237.286 212.775 237.114C213.148 236.942 213.348 236.799 213.377 236.684C213.577 235.882 213.678 234.794 213.678 233.419V229.552C213.678 227.432 213.377 225.928 212.775 225.04C212.202 224.123 211.271 223.665 209.982 223.665C209.094 223.665 208.378 223.837 207.834 224.18C207.29 224.496 207.018 224.954 207.018 225.555V232.774C207.018 234.665 207.118 235.968 207.318 236.684C207.376 236.799 207.576 236.942 207.92 237.114C208.264 237.286 208.636 237.443 209.037 237.587C209.438 237.701 209.71 237.759 209.854 237.759C209.911 237.759 209.954 237.873 209.982 238.102C210.011 238.331 210.025 238.575 210.025 238.833C210.025 239.091 209.997 239.262 209.939 239.348C209.71 239.32 209.223 239.277 208.479 239.219C207.734 239.191 206.946 239.148 206.115 239.091C205.313 239.033 204.683 239.005 204.225 239.005C203.881 239.005 203.408 239.019 202.807 239.048C202.234 239.076 201.632 239.119 201.002 239.177C200.372 239.205 199.813 239.234 199.326 239.262C198.839 239.32 198.51 239.348 198.338 239.348ZM231.166 239.606C230.507 239.606 229.777 239.535 228.975 239.391C228.173 239.248 227.428 239.048 226.74 238.79C226.053 238.532 225.523 238.26 225.15 237.973C224.807 235.997 224.635 234.249 224.635 232.731C224.778 232.645 224.993 232.602 225.279 232.602C226.196 232.602 226.669 232.731 226.697 232.989C227.184 235.825 228.731 237.243 231.338 237.243C232.025 237.243 232.598 237.085 233.057 236.77C233.515 236.455 233.744 235.983 233.744 235.352C233.744 234.751 233.501 234.235 233.014 233.805C232.527 233.376 231.954 232.989 231.295 232.645C230.636 232.302 230.035 231.986 229.49 231.7C227.829 230.898 226.597 230.024 225.795 229.079C224.993 228.105 224.592 226.916 224.592 225.512C224.592 224.195 224.936 223.135 225.623 222.333C226.311 221.502 227.227 220.886 228.373 220.485C229.519 220.084 230.751 219.884 232.068 219.884C234.561 219.884 236.423 220.17 237.654 220.743C237.941 222.003 238.084 223.779 238.084 226.071C238.084 226.329 237.898 226.458 237.525 226.458C236.637 226.458 236.165 226.343 236.107 226.114C235.85 224.911 235.406 223.966 234.775 223.278C234.174 222.591 233.2 222.247 231.854 222.247C231.223 222.247 230.708 222.404 230.307 222.719C229.906 223.006 229.705 223.436 229.705 224.009C229.705 224.667 229.992 225.24 230.564 225.727C231.137 226.186 231.982 226.687 233.1 227.231C234.045 227.661 234.962 228.162 235.85 228.735C236.738 229.279 237.454 229.967 237.998 230.798C238.571 231.6 238.857 232.617 238.857 233.848C238.857 235.739 238.127 237.171 236.666 238.145C235.234 239.119 233.4 239.606 231.166 239.606ZM256.732 239.391C256.561 239.391 256.475 239.134 256.475 238.618V237.028C256.475 236.799 256.417 236.742 256.303 236.856C255.701 237.486 254.813 238.059 253.639 238.575C252.493 239.091 251.247 239.348 249.9 239.348C248.783 239.348 247.795 239.005 246.936 238.317C246.105 237.63 245.46 236.713 245.002 235.567C244.544 234.393 244.314 233.104 244.314 231.7V227.532C244.314 225.928 244.057 224.854 243.541 224.309C243.312 224.023 242.997 223.822 242.596 223.708C242.223 223.593 241.894 223.522 241.607 223.493C241.321 223.436 241.178 223.378 241.178 223.321C241.178 222.318 241.249 221.817 241.393 221.817C241.65 221.817 242.123 221.76 242.811 221.645C243.527 221.531 244.3 221.402 245.131 221.259C245.962 221.087 246.749 220.915 247.494 220.743C248.268 220.542 248.855 220.385 249.256 220.27C249.342 220.242 249.413 220.213 249.471 220.184C249.557 220.156 249.643 220.141 249.729 220.141C249.872 220.141 250.015 220.242 250.158 220.442C250.301 220.614 250.373 220.757 250.373 220.872C250.23 222.132 250.115 223.121 250.029 223.837C249.943 224.553 249.9 224.997 249.9 225.169V229.766C249.9 232.001 250.187 233.576 250.76 234.493C251.333 235.381 252.292 235.825 253.639 235.825C254.613 235.825 255.343 235.61 255.83 235.18C256.317 234.722 256.561 234.221 256.561 233.677V227.532C256.561 225.928 256.303 224.854 255.787 224.309C255.558 224.023 255.243 223.822 254.842 223.708C254.469 223.593 254.14 223.522 253.854 223.493C253.567 223.436 253.424 223.378 253.424 223.321C253.424 222.318 253.495 221.817 253.639 221.817C253.896 221.817 254.369 221.76 255.057 221.645C255.773 221.531 256.546 221.402 257.377 221.259C258.208 221.087 258.995 220.915 259.74 220.743C260.514 220.542 261.101 220.385 261.502 220.27L261.975 220.141C262.118 220.141 262.261 220.242 262.404 220.442C262.548 220.614 262.619 220.757 262.619 220.872C262.476 222.132 262.361 223.121 262.275 223.837C262.189 224.553 262.146 224.983 262.146 225.126V233.548C262.146 235.066 262.29 235.968 262.576 236.255C262.719 236.398 262.949 236.512 263.264 236.598C263.579 236.656 263.894 236.684 264.209 236.684H264.639C264.753 236.713 264.811 236.828 264.811 237.028C264.811 237.859 264.725 238.274 264.553 238.274C262.777 238.446 261.287 238.618 260.084 238.79C258.91 238.962 257.993 239.119 257.334 239.262L256.732 239.391ZM267.174 239.348C267.059 239.234 267.002 238.933 267.002 238.446C267.002 237.988 267.059 237.759 267.174 237.759C267.403 237.759 267.732 237.701 268.162 237.587C268.592 237.443 268.993 237.286 269.365 237.114C269.738 236.942 269.938 236.799 269.967 236.684C270.167 235.882 270.268 234.794 270.268 233.419V216.36C270.268 215.701 270.239 215.114 270.182 214.598C270.153 214.083 270.11 213.639 270.053 213.266C269.938 212.808 269.193 212.579 267.818 212.579H267.432C267.26 212.579 267.174 212.292 267.174 211.719C267.174 211.233 267.26 210.989 267.432 210.989C269.093 210.846 270.654 210.602 272.115 210.259C273.605 209.915 274.665 209.643 275.295 209.442L275.725 209.313H275.811C275.925 209.313 276.04 209.399 276.154 209.571C276.269 209.743 276.34 209.9 276.369 210.044C276.054 211.39 275.896 212.837 275.896 214.384L275.854 232.774C275.854 234.665 275.954 235.968 276.154 236.684C276.212 236.799 276.426 236.942 276.799 237.114C277.171 237.286 277.558 237.443 277.959 237.587C278.389 237.701 278.689 237.759 278.861 237.759C278.919 237.759 278.962 237.873 278.99 238.102C279.019 238.331 279.033 238.575 279.033 238.833C279.033 239.091 279.005 239.262 278.947 239.348C278.775 239.348 278.446 239.32 277.959 239.262C277.472 239.234 276.899 239.205 276.24 239.177C275.61 239.119 275.008 239.076 274.436 239.048C273.863 239.019 273.404 239.005 273.061 239.005C272.717 239.005 272.244 239.019 271.643 239.048C271.07 239.076 270.468 239.119 269.838 239.177C269.208 239.205 268.649 239.234 268.162 239.262C267.675 239.32 267.346 239.348 267.174 239.348ZM289.775 239.477C288.2 239.477 286.839 238.99 285.693 238.016C284.576 237.014 284.018 235.41 284.018 233.204V223.278H281.225C280.995 223.278 280.881 222.834 280.881 221.946C280.881 221.746 280.91 221.588 280.967 221.473C281.769 221.072 282.485 220.686 283.115 220.313C283.774 219.912 284.347 219.525 284.834 219.153C286.094 218.15 287.011 217.391 287.584 216.876C288.157 216.36 288.458 216.088 288.486 216.059C288.715 216.059 288.959 216.117 289.217 216.231C289.475 216.317 289.604 216.417 289.604 216.532V220.743H294.244C294.473 220.743 294.588 220.886 294.588 221.173C294.588 222.032 294.445 222.734 294.158 223.278H289.604V233.462C289.604 235.639 290.377 236.727 291.924 236.727C292.726 236.727 293.285 236.627 293.6 236.427C293.943 236.197 294.173 236.083 294.287 236.083C294.402 236.083 294.516 236.226 294.631 236.512C294.774 236.799 294.846 237.014 294.846 237.157C294.846 237.386 294.559 237.687 293.986 238.059C293.442 238.432 292.769 238.761 291.967 239.048C291.193 239.334 290.463 239.477 289.775 239.477ZM302.279 239.477C300.704 239.477 299.443 239.048 298.498 238.188C297.581 237.3 297.123 236.197 297.123 234.88C297.123 233.762 297.467 232.788 298.154 231.958C298.87 231.127 299.758 230.468 300.818 229.981C301.219 229.809 301.592 229.666 301.936 229.552C302.279 229.408 302.594 229.279 302.881 229.165C303.969 228.821 304.843 228.578 305.502 228.434C306.161 228.262 306.648 228.119 306.963 228.005C307.221 227.919 307.35 227.704 307.35 227.36V225.813C307.35 223.464 306.633 222.29 305.201 222.29C303.54 222.29 302.709 223.249 302.709 225.169C302.709 225.799 302.451 226.272 301.936 226.587C301.42 226.873 300.847 227.016 300.217 227.016C298.899 227.016 297.997 226.587 297.51 225.727C297.51 224.983 297.768 224.266 298.283 223.579C298.827 222.891 299.529 222.275 300.389 221.731C301.277 221.158 302.265 220.714 303.354 220.399C304.471 220.055 305.588 219.884 306.705 219.884C308.71 219.884 310.243 220.442 311.303 221.559C312.391 222.648 312.936 224.639 312.936 227.532V234.493C312.936 235.467 313.279 235.954 313.967 235.954C314.482 235.954 314.969 235.768 315.428 235.395C315.628 235.51 315.729 235.725 315.729 236.04C315.729 236.785 315.628 237.315 315.428 237.63C315.027 238.002 314.368 238.403 313.451 238.833C312.563 239.234 311.718 239.434 310.916 239.434C310.229 239.434 309.57 239.234 308.939 238.833C308.309 238.403 307.894 237.916 307.693 237.372C307.665 237.372 307.507 237.472 307.221 237.673C306.934 237.873 306.719 238.031 306.576 238.145C306.003 238.518 305.344 238.833 304.6 239.091C303.855 239.348 303.081 239.477 302.279 239.477ZM304.986 236.384C305.731 236.384 306.304 236.212 306.705 235.868C307.135 235.496 307.35 235.052 307.35 234.536V230.196L305.115 230.969C304.514 231.17 303.955 231.471 303.439 231.872C302.952 232.273 302.709 232.803 302.709 233.462C302.709 234.493 302.924 235.238 303.354 235.696C303.812 236.154 304.356 236.384 304.986 236.384ZM317.834 239.348C317.719 239.234 317.662 238.933 317.662 238.446C317.662 237.988 317.719 237.759 317.834 237.759C318.063 237.759 318.378 237.701 318.779 237.587C319.209 237.443 319.61 237.286 319.982 237.114C320.383 236.942 320.598 236.799 320.627 236.684C320.827 235.882 320.928 234.794 320.928 233.419V227.532C320.928 225.928 320.67 224.854 320.154 224.309C319.925 224.023 319.61 223.822 319.209 223.708C318.837 223.593 318.507 223.522 318.221 223.493C317.934 223.436 317.791 223.378 317.791 223.321C317.791 222.318 317.863 221.817 318.006 221.817C318.751 221.817 319.811 221.66 321.186 221.344C322.561 221.001 324.122 220.643 325.869 220.27L326.084 220.227C326.113 220.199 326.17 220.184 326.256 220.184L326.342 220.141C326.485 220.141 326.628 220.242 326.771 220.442C326.943 220.614 327.015 220.757 326.986 220.872L326.814 222.204C326.814 222.347 326.829 222.433 326.857 222.462C326.915 222.462 327.015 222.39 327.158 222.247C328.734 220.757 330.725 220.012 333.131 220.012C334.792 220.012 336.139 220.714 337.17 222.118C338.23 223.522 338.76 225.656 338.76 228.52V232.774C338.76 234.665 338.86 235.968 339.061 236.684C339.118 236.799 339.333 236.942 339.705 237.114C340.077 237.286 340.464 237.443 340.865 237.587C341.295 237.701 341.596 237.759 341.768 237.759C341.825 237.759 341.868 237.873 341.896 238.102C341.925 238.331 341.939 238.575 341.939 238.833C341.939 239.091 341.911 239.262 341.854 239.348C341.682 239.348 341.352 239.32 340.865 239.262C340.378 239.234 339.805 239.205 339.146 239.177C338.516 239.119 337.915 239.076 337.342 239.048C336.769 239.019 336.311 239.005 335.967 239.005C335.508 239.005 334.864 239.033 334.033 239.091C333.231 239.148 332.458 239.191 331.713 239.219C330.968 239.277 330.481 239.32 330.252 239.348C330.137 239.234 330.08 238.933 330.08 238.446C330.08 237.988 330.137 237.759 330.252 237.759C330.481 237.759 330.782 237.701 331.154 237.587C331.555 237.443 331.928 237.286 332.271 237.114C332.644 236.942 332.844 236.799 332.873 236.684C333.074 235.882 333.174 234.794 333.174 233.419V229.552C333.174 227.432 332.873 225.928 332.271 225.04C331.699 224.123 330.768 223.665 329.479 223.665C328.59 223.665 327.874 223.837 327.33 224.18C326.786 224.496 326.514 224.954 326.514 225.555V232.774C326.514 234.665 326.614 235.968 326.814 236.684C326.872 236.799 327.072 236.942 327.416 237.114C327.76 237.286 328.132 237.443 328.533 237.587C328.934 237.701 329.206 237.759 329.35 237.759C329.407 237.759 329.45 237.873 329.479 238.102C329.507 238.331 329.521 238.575 329.521 238.833C329.521 239.091 329.493 239.262 329.436 239.348C329.206 239.32 328.719 239.277 327.975 239.219C327.23 239.191 326.442 239.148 325.611 239.091C324.809 239.033 324.179 239.005 323.721 239.005C323.377 239.005 322.904 239.019 322.303 239.048C321.73 239.076 321.128 239.119 320.498 239.177C319.868 239.205 319.309 239.234 318.822 239.262C318.335 239.32 318.006 239.348 317.834 239.348ZM353.627 239.477C351.794 239.477 350.146 239.033 348.686 238.145C347.225 237.257 346.064 236.054 345.205 234.536C344.346 233.018 343.916 231.328 343.916 229.466C343.916 227.69 344.374 226.085 345.291 224.653C346.208 223.221 347.439 222.089 348.986 221.259C350.562 220.399 352.295 219.969 354.186 219.969C355.646 219.969 356.993 220.227 358.225 220.743C359.456 221.23 360.344 221.817 360.889 222.505C360.889 225.14 360.115 226.458 358.568 226.458C357.451 226.458 356.606 225.742 356.033 224.309C355.775 223.65 355.446 223.163 355.045 222.848C354.673 222.505 354.143 222.333 353.455 222.333C351.163 222.333 350.018 224.481 350.018 228.778C350.018 233.619 351.636 236.04 354.873 236.04C355.847 236.04 356.749 235.897 357.58 235.61C358.153 235.438 358.597 235.281 358.912 235.137C359.227 234.994 359.514 234.837 359.771 234.665C360.058 234.464 360.387 234.221 360.76 233.934C361.018 234.049 361.146 234.321 361.146 234.751C361.146 235.123 361.089 235.41 360.975 235.61C360.803 236.068 360.359 236.613 359.643 237.243C358.926 237.844 358.038 238.374 356.979 238.833C355.947 239.262 354.83 239.477 353.627 239.477ZM365.486 248.544C364.627 248.544 363.925 248.315 363.381 247.856C362.865 247.398 362.607 246.868 362.607 246.266C362.607 245.407 362.937 244.734 363.596 244.247C367.262 244.247 369.626 243.13 370.686 240.895L372.018 238.059L365.4 223.364C365.114 222.734 364.67 222.304 364.068 222.075C363.495 221.846 362.994 221.731 362.564 221.731C362.45 221.731 362.393 221.516 362.393 221.087C362.393 220.514 362.421 220.199 362.479 220.141C362.593 220.141 362.865 220.156 363.295 220.184C363.753 220.213 364.383 220.256 365.186 220.313C365.988 220.371 366.661 220.413 367.205 220.442C367.778 220.471 368.236 220.485 368.58 220.485C369.01 220.485 369.626 220.456 370.428 220.399C371.23 220.342 372.003 220.285 372.748 220.227C373.521 220.17 374.008 220.141 374.209 220.141C374.295 220.399 374.338 220.7 374.338 221.044C374.338 221.502 374.281 221.731 374.166 221.731C373.937 221.731 373.607 221.788 373.178 221.903C372.748 222.018 372.361 222.161 372.018 222.333C371.674 222.476 371.502 222.648 371.502 222.848C371.559 223.278 371.86 224.209 372.404 225.641C372.977 227.074 373.808 229.065 374.896 231.614C375.87 229.494 376.615 227.861 377.131 226.716C377.675 225.541 377.99 224.854 378.076 224.653C378.248 224.252 378.334 223.822 378.334 223.364C378.334 222.992 378.062 222.634 377.518 222.29C376.973 221.917 376.229 221.731 375.283 221.731C375.169 221.731 375.111 221.473 375.111 220.958C375.111 220.757 375.111 220.6 375.111 220.485C375.14 220.342 375.169 220.227 375.197 220.141C375.426 220.141 375.899 220.17 376.615 220.227C377.36 220.285 378.133 220.342 378.936 220.399C379.738 220.456 380.368 220.485 380.826 220.485C381.141 220.485 381.499 220.471 381.9 220.442C382.301 220.385 382.745 220.342 383.232 220.313L385.424 220.141C385.538 220.342 385.596 220.585 385.596 220.872C385.596 221.445 385.538 221.731 385.424 221.731C385.137 221.731 384.736 221.803 384.221 221.946C383.734 222.061 383.247 222.247 382.76 222.505C382.301 222.734 381.986 223.049 381.814 223.45L373.822 240.766C371.416 245.951 368.637 248.544 365.486 248.544Z" fill="#C85E2C"/>
</svg>
