<svg width="24" height="25" viewBox="0 0 24 25" fill="none" xmlns="http://www.w3.org/2000/svg">
<path d="M17.7071 13.8632L20.3552 16.5114C20.7113 16.8675 20.7113 17.4448 20.3552 17.8009C18.43 19.7261 15.3821 19.9427 13.204 18.3091L11.6286 17.1276C9.88504 15.8199 8.33622 14.2711 7.02857 12.5276L5.84701 10.9521C4.21341 8.774 4.43001 5.72611 6.35523 3.8009C6.71133 3.4448 7.28867 3.4448 7.64477 3.8009L10.2929 6.44902C10.6834 6.83955 10.6834 7.47271 10.2929 7.86323L9.27175 8.88438C9.10946 9.04667 9.06923 9.29459 9.17187 9.49986C10.3585 11.8732 12.2829 13.7976 14.6563 14.9843C14.8615 15.0869 15.1095 15.0467 15.2717 14.8844L16.2929 13.8632C16.6834 13.4727 17.3166 13.4727 17.7071 13.8632Z" stroke="#33363F" stroke-width="2"/>
</svg>
